<svg width="580" height="422" viewBox="0 0 580 422" fill="none" xmlns="http://www.w3.org/2000/svg">
<g clip-path="url(#clip0_2_24)">
<path d="M337.849 74.3937C348.719 74.3937 357.531 65.5782 357.531 54.7037C357.531 43.8293 348.719 35.0138 337.849 35.0138C326.979 35.0138 318.167 43.8293 318.167 54.7037C318.167 65.5782 326.979 74.3937 337.849 74.3937Z" fill="#F2F2F2"/>
<path d="M490.531 366.615C519.787 344.323 533.76 306.864 525.012 271.131C524.795 270.243 524.565 269.357 524.324 268.473C518.524 247.262 504.176 227.103 483.265 220.325C465.706 214.635 446.54 219.011 428.223 216.748C392.264 212.305 364.385 183.199 344.77 152.724C325.154 122.25 310.078 88.1379 284.013 62.9614C241.049 21.4623 170.963 12.5275 117.694 39.5403C64.424 66.5532 30.4919 126.484 31.939 186.212C33.3861 245.94 68.8303 303.044 120.304 333.341C139.213 344.471 161.084 352.356 182.85 349.597C201.735 347.203 218.895 337.052 237.692 334.038C267.245 329.299 296.61 342.666 322.171 358.243C347.732 373.82 372.422 392.283 401.469 399.504C429.673 406.516 464.615 386.362 490.531 366.615Z" fill="#F2F2F2"/>
<path d="M448.498 40.7946C447.856 40.3669 447.208 39.9613 446.566 39.5483C428.028 27.6873 408.158 18.0516 387.366 10.8402L382.545 77.3711H351.983V1.12821C350.06 0.729994 348.121 0.353905 346.182 -6.10352e-05V77.3711H309.863C289.869 77.3711 270.694 69.4254 256.556 55.282C242.418 41.1386 234.475 21.956 234.475 1.95421V1.95415C232.529 2.37448 230.598 2.82431 228.667 3.30364V77.3711H199.085L194.493 13.93C173.126 22.1275 152.842 32.9076 134.091 46.0303C133.767 46.2516 133.442 46.4802 133.125 46.7014C131.496 47.8444 129.889 49.0095 128.29 50.1894V304.005H215.472L213.931 282.657L205.454 165.442H376.169L367.692 282.657L366.151 304.005H452.368V43.3608C451.085 42.4907 449.795 41.6353 448.498 40.7946ZM228.667 146.085H204.053L199.505 83.182H228.667V146.085ZM346.182 146.085H304.843V144.839C304.843 144.239 304.725 143.646 304.496 143.093C304.266 142.539 303.93 142.037 303.506 141.613C303.082 141.19 302.579 140.855 302.026 140.626C301.472 140.397 300.879 140.28 300.28 140.281H282.309C281.71 140.281 281.118 140.399 280.565 140.628C280.012 140.857 279.51 141.192 279.087 141.616C278.664 142.039 278.328 142.541 278.099 143.094C277.87 143.647 277.753 144.24 277.753 144.839V146.085H234.475V83.182H346.182V146.085ZM351.984 146.085V83.182H382.125L377.577 146.085H351.984Z" fill="#3F3D56"/>
<path d="M-3.05176e-05 320.259C6.40373 327.85 13.3301 334.983 20.7285 341.608L559.271 342.345C566.67 335.721 573.596 328.587 580 320.996L-3.05176e-05 320.259Z" fill="#3F3D56"/>
<path d="M365.203 251.9V315.1C365.204 315.906 365.524 316.678 366.094 317.248C366.663 317.817 367.435 318.137 368.24 318.138H461.86C462.666 318.137 463.438 317.817 464.007 317.248C464.576 316.678 464.896 315.906 464.897 315.1V251.9C464.895 251.095 464.574 250.324 464.005 249.755C463.436 249.186 462.665 248.867 461.86 248.865H368.24C367.435 248.867 366.664 249.186 366.095 249.755C365.526 250.324 365.205 251.095 365.203 251.9Z" fill="#3F3D56"/>
<path d="M367.4 252.686V314.321C367.4 314.751 367.572 315.164 367.876 315.468C368.18 315.772 368.592 315.943 369.022 315.944H461.081C461.511 315.943 461.924 315.772 462.228 315.468C462.532 315.164 462.703 314.751 462.704 314.321V252.686C462.704 252.255 462.533 251.842 462.229 251.537C461.925 251.232 461.512 251.06 461.081 251.059H369.022C368.592 251.06 368.179 251.232 367.875 251.537C367.571 251.842 367.4 252.255 367.4 252.686Z" fill="#00BFA6"/>
<path d="M363.245 327.426C363.417 327.641 363.635 327.815 363.883 327.933C364.131 328.052 364.403 328.113 364.678 328.112H464.924C465.198 328.111 465.469 328.05 465.716 327.932C465.963 327.814 466.181 327.642 466.354 327.429C466.527 327.216 466.65 326.967 466.714 326.701C466.779 326.434 466.783 326.156 466.727 325.888L465.171 318.494C465.106 318.192 464.967 317.911 464.767 317.677C464.566 317.443 464.31 317.263 464.022 317.153C463.814 317.071 463.592 317.029 463.368 317.03H366.228C366.004 317.029 365.782 317.071 365.573 317.153C365.285 317.263 365.029 317.443 364.829 317.677C364.628 317.911 364.489 318.192 364.425 318.494L362.869 325.888C362.813 326.156 362.818 326.434 362.884 326.7C362.949 326.966 363.072 327.214 363.245 327.426Z" fill="#2F2E41"/>
<path d="M459.928 320.214H462.296C462.495 320.214 462.656 320.053 462.656 319.854V318.721C462.656 318.522 462.495 318.361 462.296 318.361H459.928C459.729 318.361 459.568 318.522 459.568 318.721V319.854C459.568 320.053 459.729 320.214 459.928 320.214Z" fill="#3F3D56"/>
<path d="M453.753 320.214H456.121C456.32 320.214 456.481 320.053 456.481 319.854V318.721C456.481 318.522 456.32 318.361 456.121 318.361H453.753C453.554 318.361 453.393 318.522 453.393 318.721V319.854C453.393 320.053 453.554 320.214 453.753 320.214Z" fill="#3F3D56"/>
<path d="M447.578 320.214H449.946C450.144 320.214 450.306 320.053 450.306 319.854V318.721C450.306 318.522 450.144 318.361 449.946 318.361H447.578C447.379 318.361 447.218 318.522 447.218 318.721V319.854C447.218 320.053 447.379 320.214 447.578 320.214Z" fill="#3F3D56"/>
<path d="M441.403 320.214H443.771C443.969 320.214 444.131 320.053 444.131 319.854V318.721C444.131 318.522 443.969 318.361 443.771 318.361H441.403C441.204 318.361 441.043 318.522 441.043 318.721V319.854C441.043 320.053 441.204 320.214 441.403 320.214Z" fill="#3F3D56"/>
<path d="M435.228 320.214H437.596C437.794 320.214 437.955 320.053 437.955 319.854V318.721C437.955 318.522 437.794 318.361 437.596 318.361H435.228C435.029 318.361 434.868 318.522 434.868 318.721V319.854C434.868 320.053 435.029 320.214 435.228 320.214Z" fill="#3F3D56"/>
<path d="M429.053 320.214H431.421C431.619 320.214 431.78 320.053 431.78 319.854V318.721C431.78 318.522 431.619 318.361 431.421 318.361H429.053C428.854 318.361 428.693 318.522 428.693 318.721V319.854C428.693 320.053 428.854 320.214 429.053 320.214Z" fill="#3F3D56"/>
<path d="M422.878 320.214H425.246C425.444 320.214 425.605 320.053 425.605 319.854V318.721C425.605 318.522 425.444 318.361 425.246 318.361H422.878C422.679 318.361 422.518 318.522 422.518 318.721V319.854C422.518 320.053 422.679 320.214 422.878 320.214Z" fill="#3F3D56"/>
<path d="M416.703 320.214H419.07C419.269 320.214 419.43 320.053 419.43 319.854V318.721C419.43 318.522 419.269 318.361 419.07 318.361H416.703C416.504 318.361 416.343 318.522 416.343 318.721V319.854C416.343 320.053 416.504 320.214 416.703 320.214Z" fill="#3F3D56"/>
<path d="M410.528 320.214H412.895C413.094 320.214 413.255 320.053 413.255 319.854V318.721C413.255 318.522 413.094 318.361 412.895 318.361H410.528C410.329 318.361 410.168 318.522 410.168 318.721V319.854C410.168 320.053 410.329 320.214 410.528 320.214Z" fill="#3F3D56"/>
<path d="M404.353 320.214H406.72C406.919 320.214 407.08 320.053 407.08 319.854V318.721C407.08 318.522 406.919 318.361 406.72 318.361H404.353C404.154 318.361 403.993 318.522 403.993 318.721V319.854C403.993 320.053 404.154 320.214 404.353 320.214Z" fill="#3F3D56"/>
<path d="M398.178 320.214H400.545C400.744 320.214 400.905 320.053 400.905 319.854V318.721C400.905 318.522 400.744 318.361 400.545 318.361H398.178C397.979 318.361 397.818 318.522 397.818 318.721V319.854C397.818 320.053 397.979 320.214 398.178 320.214Z" fill="#3F3D56"/>
<path d="M392.003 320.214H394.37C394.569 320.214 394.73 320.053 394.73 319.854V318.721C394.73 318.522 394.569 318.361 394.37 318.361H392.003C391.804 318.361 391.643 318.522 391.643 318.721V319.854C391.643 320.053 391.804 320.214 392.003 320.214Z" fill="#3F3D56"/>
<path d="M385.827 320.214H388.195C388.394 320.214 388.555 320.053 388.555 319.854V318.721C388.555 318.522 388.394 318.361 388.195 318.361H385.827C385.629 318.361 385.468 318.522 385.468 318.721V319.854C385.468 320.053 385.629 320.214 385.827 320.214Z" fill="#3F3D56"/>
<path d="M379.652 320.214H382.02C382.219 320.214 382.38 320.053 382.38 319.854V318.721C382.38 318.522 382.219 318.361 382.02 318.361H379.652C379.454 318.361 379.293 318.522 379.293 318.721V319.854C379.293 320.053 379.454 320.214 379.652 320.214Z" fill="#3F3D56"/>
<path d="M373.477 320.214H375.845C376.044 320.214 376.205 320.053 376.205 319.854V318.721C376.205 318.522 376.044 318.361 375.845 318.361H373.477C373.279 318.361 373.118 318.522 373.118 318.721V319.854C373.118 320.053 373.279 320.214 373.477 320.214Z" fill="#3F3D56"/>
<path d="M367.302 320.214H369.67C369.869 320.214 370.03 320.053 370.03 319.854V318.721C370.03 318.522 369.869 318.361 369.67 318.361H367.302C367.104 318.361 366.942 318.522 366.942 318.721V319.854C366.942 320.053 367.104 320.214 367.302 320.214Z" fill="#3F3D56"/>
<path d="M460.001 323.303H462.369C462.567 323.303 462.729 323.142 462.729 322.943V321.81C462.729 321.611 462.567 321.45 462.369 321.45H460.001C459.802 321.45 459.641 321.611 459.641 321.81V322.943C459.641 323.142 459.802 323.303 460.001 323.303Z" fill="#3F3D56"/>
<path d="M453.826 323.303H456.194C456.392 323.303 456.554 323.142 456.554 322.943V321.81C456.554 321.611 456.392 321.45 456.194 321.45H453.826C453.627 321.45 453.466 321.611 453.466 321.81V322.943C453.466 323.142 453.627 323.303 453.826 323.303Z" fill="#3F3D56"/>
<path d="M447.651 323.303H450.019C450.217 323.303 450.379 323.142 450.379 322.943V321.81C450.379 321.611 450.217 321.45 450.019 321.45H447.651C447.452 321.45 447.291 321.611 447.291 321.81V322.943C447.291 323.142 447.452 323.303 447.651 323.303Z" fill="#3F3D56"/>
<path d="M441.476 323.303H443.844C444.042 323.303 444.203 323.142 444.203 322.943V321.81C444.203 321.611 444.042 321.45 443.844 321.45H441.476C441.277 321.45 441.116 321.611 441.116 321.81V322.943C441.116 323.142 441.277 323.303 441.476 323.303Z" fill="#3F3D56"/>
<path d="M435.301 323.303H437.669C437.867 323.303 438.028 323.142 438.028 322.943V321.81C438.028 321.611 437.867 321.45 437.669 321.45H435.301C435.102 321.45 434.941 321.611 434.941 321.81V322.943C434.941 323.142 435.102 323.303 435.301 323.303Z" fill="#3F3D56"/>
<path d="M429.126 323.303H431.494C431.692 323.303 431.853 323.142 431.853 322.943V321.81C431.853 321.611 431.692 321.45 431.494 321.45H429.126C428.927 321.45 428.766 321.611 428.766 321.81V322.943C428.766 323.142 428.927 323.303 429.126 323.303Z" fill="#3F3D56"/>
<path d="M422.951 323.303H425.318C425.517 323.303 425.678 323.142 425.678 322.943V321.81C425.678 321.611 425.517 321.45 425.318 321.45H422.951C422.752 321.45 422.591 321.611 422.591 321.81V322.943C422.591 323.142 422.752 323.303 422.951 323.303Z" fill="#3F3D56"/>
<path d="M416.776 323.303H419.143C419.342 323.303 419.503 323.142 419.503 322.943V321.81C419.503 321.611 419.342 321.45 419.143 321.45H416.776C416.577 321.45 416.416 321.611 416.416 321.81V322.943C416.416 323.142 416.577 323.303 416.776 323.303Z" fill="#3F3D56"/>
<path d="M410.601 323.303H412.968C413.167 323.303 413.328 323.142 413.328 322.943V321.81C413.328 321.611 413.167 321.45 412.968 321.45H410.601C410.402 321.45 410.241 321.611 410.241 321.81V322.943C410.241 323.142 410.402 323.303 410.601 323.303Z" fill="#3F3D56"/>
<path d="M404.426 323.303H406.793C406.992 323.303 407.153 323.142 407.153 322.943V321.81C407.153 321.611 406.992 321.45 406.793 321.45H404.426C404.227 321.45 404.066 321.611 404.066 321.81V322.943C404.066 323.142 404.227 323.303 404.426 323.303Z" fill="#3F3D56"/>
<path d="M398.251 323.303H400.618C400.817 323.303 400.978 323.142 400.978 322.943V321.81C400.978 321.611 400.817 321.45 400.618 321.45H398.251C398.052 321.45 397.891 321.611 397.891 321.81V322.943C397.891 323.142 398.052 323.303 398.251 323.303Z" fill="#3F3D56"/>
<path d="M392.075 323.303H394.443C394.642 323.303 394.803 323.142 394.803 322.943V321.81C394.803 321.611 394.642 321.45 394.443 321.45H392.075C391.877 321.45 391.716 321.611 391.716 321.81V322.943C391.716 323.142 391.877 323.303 392.075 323.303Z" fill="#3F3D56"/>
<path d="M385.9 323.303H388.268C388.467 323.303 388.628 323.142 388.628 322.943V321.81C388.628 321.611 388.467 321.45 388.268 321.45H385.9C385.702 321.45 385.541 321.611 385.541 321.81V322.943C385.541 323.142 385.702 323.303 385.9 323.303Z" fill="#3F3D56"/>
<path d="M379.725 323.303H382.093C382.292 323.303 382.453 323.142 382.453 322.943V321.81C382.453 321.611 382.292 321.45 382.093 321.45H379.725C379.527 321.45 379.366 321.611 379.366 321.81V322.943C379.366 323.142 379.527 323.303 379.725 323.303Z" fill="#3F3D56"/>
<path d="M373.55 323.303H375.918C376.117 323.303 376.278 323.142 376.278 322.943V321.81C376.278 321.611 376.117 321.45 375.918 321.45H373.55C373.352 321.45 373.19 321.611 373.19 321.81V322.943C373.19 323.142 373.352 323.303 373.55 323.303Z" fill="#3F3D56"/>
<path d="M367.375 323.303H369.743C369.942 323.303 370.103 323.142 370.103 322.943V321.81C370.103 321.611 369.942 321.45 369.743 321.45H367.375C367.177 321.45 367.015 321.611 367.015 321.81V322.943C367.015 323.142 367.177 323.303 367.375 323.303Z" fill="#3F3D56"/>
<path d="M408.748 327.01H432.729C432.927 327.01 433.088 326.848 433.088 326.65V325.516C433.088 325.318 432.927 325.156 432.729 325.156H408.748C408.549 325.156 408.388 325.318 408.388 325.516V326.65C408.388 326.848 408.549 327.01 408.748 327.01Z" fill="#3F3D56"/>
<path d="M383.342 264.543H381.245C380.61 264.543 380.095 265.059 380.095 265.695C380.095 266.33 380.61 266.846 381.245 266.846H383.342C383.977 266.846 384.492 266.33 384.492 265.695C384.492 265.059 383.977 264.543 383.342 264.543Z" fill="white"/>
<path d="M407.316 264.543H405.219C404.584 264.543 404.069 265.059 404.069 265.695C404.069 266.33 404.584 266.846 405.219 266.846H407.316C407.951 266.846 408.466 266.33 408.466 265.695C408.466 265.059 407.951 264.543 407.316 264.543Z" fill="white"/>
<path d="M414.108 264.543H412.012C411.377 264.543 410.861 265.059 410.861 265.695C410.861 266.33 411.377 266.846 412.012 266.846H414.108C414.744 266.846 415.259 266.33 415.259 265.695C415.259 265.059 414.744 264.543 414.108 264.543Z" fill="white"/>
<path d="M400.795 264.352H387.766C387.131 264.352 386.616 264.867 386.616 265.503C386.616 266.139 387.131 266.654 387.766 266.654H400.795C401.43 266.654 401.945 266.139 401.945 265.503C401.945 264.867 401.43 264.352 400.795 264.352Z" fill="white"/>
<path d="M432.76 264.352H419.732C419.096 264.352 418.581 264.867 418.581 265.503C418.581 266.139 419.096 266.654 419.732 266.654H432.76C433.396 266.654 433.911 266.139 433.911 265.503C433.911 264.867 433.396 264.352 432.76 264.352Z" fill="white"/>
<path d="M389.735 269.74H387.638C387.003 269.74 386.488 270.255 386.488 270.891C386.488 271.527 387.003 272.042 387.638 272.042H389.735C390.37 272.042 390.885 271.527 390.885 270.891C390.885 270.255 390.37 269.74 389.735 269.74Z" fill="white"/>
<path d="M413.709 269.74H411.613C410.977 269.74 410.462 270.255 410.462 270.891C410.462 271.527 410.977 272.042 411.613 272.042H413.709C414.344 272.042 414.86 271.527 414.86 270.891C414.86 270.255 414.344 269.74 413.709 269.74Z" fill="white"/>
<path d="M420.501 269.74H418.405C417.77 269.74 417.255 270.255 417.255 270.891C417.255 271.527 417.77 272.042 418.405 272.042H420.501C421.137 272.042 421.652 271.527 421.652 270.891C421.652 270.255 421.137 269.74 420.501 269.74Z" fill="white"/>
<path d="M407.188 269.548H394.159C393.524 269.548 393.009 270.063 393.009 270.699C393.009 271.335 393.524 271.85 394.159 271.85H407.188C407.823 271.85 408.339 271.335 408.339 270.699C408.339 270.063 407.823 269.548 407.188 269.548Z" fill="white"/>
<path d="M439.153 269.548H426.125C425.49 269.548 424.974 270.063 424.974 270.699C424.974 271.335 425.49 271.85 426.125 271.85H439.153C439.789 271.85 440.304 271.335 440.304 270.699C440.304 270.063 439.789 269.548 439.153 269.548Z" fill="white"/>
<path d="M396.128 274.936H394.032C393.396 274.936 392.881 275.452 392.881 276.087C392.881 276.723 393.396 277.239 394.032 277.239H396.128C396.763 277.239 397.279 276.723 397.279 276.087C397.279 275.452 396.763 274.936 396.128 274.936Z" fill="white"/>
<path d="M420.102 274.936H418.006C417.37 274.936 416.855 275.452 416.855 276.087C416.855 276.723 417.37 277.239 418.006 277.239H420.102C420.737 277.239 421.253 276.723 421.253 276.087C421.253 275.452 420.737 274.936 420.102 274.936Z" fill="white"/>
<path d="M426.895 274.936H424.798C424.163 274.936 423.648 275.452 423.648 276.087C423.648 276.723 424.163 277.239 424.798 277.239H426.895C427.53 277.239 428.045 276.723 428.045 276.087C428.045 275.452 427.53 274.936 426.895 274.936Z" fill="white"/>
<path d="M413.581 274.744H400.553C399.917 274.744 399.402 275.26 399.402 275.896C399.402 276.531 399.917 277.047 400.553 277.047H413.581C414.216 277.047 414.732 276.531 414.732 275.896C414.732 275.26 414.216 274.744 413.581 274.744Z" fill="white"/>
<path d="M445.546 274.744H432.518C431.883 274.744 431.367 275.26 431.367 275.896C431.367 276.531 431.883 277.047 432.518 277.047H445.546C446.182 277.047 446.697 276.531 446.697 275.896C446.697 275.26 446.182 274.744 445.546 274.744Z" fill="white"/>
<path d="M402.521 280.133H400.425C399.789 280.133 399.274 280.648 399.274 281.284C399.274 281.92 399.789 282.435 400.425 282.435H402.521C403.156 282.435 403.672 281.92 403.672 281.284C403.672 280.648 403.156 280.133 402.521 280.133Z" fill="white"/>
<path d="M426.495 280.133H424.399C423.763 280.133 423.248 280.648 423.248 281.284C423.248 281.92 423.763 282.435 424.399 282.435H426.495C427.131 282.435 427.646 281.92 427.646 281.284C427.646 280.648 427.131 280.133 426.495 280.133Z" fill="white"/>
<path d="M433.288 280.133H431.192C430.556 280.133 430.041 280.648 430.041 281.284C430.041 281.92 430.556 282.435 431.192 282.435H433.288C433.923 282.435 434.438 281.92 434.438 281.284C434.438 280.648 433.923 280.133 433.288 280.133Z" fill="white"/>
<path d="M419.974 279.941H406.946C406.31 279.941 405.795 280.456 405.795 281.092C405.795 281.728 406.31 282.243 406.946 282.243H419.974C420.61 282.243 421.125 281.728 421.125 281.092C421.125 280.456 420.61 279.941 419.974 279.941Z" fill="white"/>
<path d="M407.316 300.796H405.219C404.584 300.796 404.069 301.311 404.069 301.947C404.069 302.583 404.584 303.098 405.219 303.098H407.316C407.951 303.098 408.466 302.583 408.466 301.947C408.466 301.311 407.951 300.796 407.316 300.796Z" fill="white"/>
<path d="M414.108 300.796H412.012C411.377 300.796 410.861 301.311 410.861 301.947C410.861 302.583 411.377 303.098 412.012 303.098H414.108C414.744 303.098 415.259 302.583 415.259 301.947C415.259 301.311 414.744 300.796 414.108 300.796Z" fill="white"/>
<path d="M432.76 300.988H419.732C419.096 300.988 418.581 301.503 418.581 302.139C418.581 302.775 419.096 303.29 419.732 303.29H432.76C433.396 303.29 433.911 302.775 433.911 302.139C433.911 301.503 433.396 300.988 432.76 300.988Z" fill="white"/>
<path d="M383.342 300.796H381.245C380.61 300.796 380.095 301.311 380.095 301.947C380.095 302.583 380.61 303.098 381.245 303.098H383.342C383.977 303.098 384.492 302.583 384.492 301.947C384.492 301.311 383.977 300.796 383.342 300.796Z" fill="white"/>
<path d="M400.795 300.988H387.766C387.131 300.988 386.616 301.503 386.616 302.139C386.616 302.775 387.131 303.29 387.766 303.29H400.795C401.43 303.29 401.945 302.775 401.945 302.139C401.945 301.503 401.43 300.988 400.795 300.988Z" fill="white"/>
<path d="M389.735 295.599H387.638C387.003 295.599 386.488 296.115 386.488 296.751C386.488 297.386 387.003 297.902 387.638 297.902H389.735C390.37 297.902 390.885 297.386 390.885 296.751C390.885 296.115 390.37 295.599 389.735 295.599Z" fill="white"/>
<path d="M413.709 295.599H411.613C410.977 295.599 410.462 296.115 410.462 296.751C410.462 297.386 410.977 297.902 411.613 297.902H413.709C414.344 297.902 414.86 297.386 414.86 296.751C414.86 296.115 414.344 295.599 413.709 295.599Z" fill="white"/>
<path d="M420.501 295.599H418.405C417.77 295.599 417.255 296.115 417.255 296.751C417.255 297.386 417.77 297.902 418.405 297.902H420.501C421.137 297.902 421.652 297.386 421.652 296.751C421.652 296.115 421.137 295.599 420.501 295.599Z" fill="white"/>
<path d="M407.188 295.791H394.159C393.524 295.791 393.009 296.307 393.009 296.943C393.009 297.578 393.524 298.094 394.159 298.094H407.188C407.823 298.094 408.339 297.578 408.339 296.943C408.339 296.307 407.823 295.791 407.188 295.791Z" fill="white"/>
<path d="M396.128 290.403H394.032C393.396 290.403 392.881 290.918 392.881 291.554C392.881 292.19 393.396 292.705 394.032 292.705H396.128C396.763 292.705 397.279 292.19 397.279 291.554C397.279 290.918 396.763 290.403 396.128 290.403Z" fill="white"/>
<path d="M420.102 290.403H418.006C417.37 290.403 416.855 290.918 416.855 291.554C416.855 292.19 417.37 292.705 418.006 292.705H420.102C420.737 292.705 421.253 292.19 421.253 291.554C421.253 290.918 420.737 290.403 420.102 290.403Z" fill="white"/>
<path d="M426.895 290.403H424.798C424.163 290.403 423.648 290.918 423.648 291.554C423.648 292.19 424.163 292.705 424.798 292.705H426.895C427.53 292.705 428.045 292.19 428.045 291.554C428.045 290.918 427.53 290.403 426.895 290.403Z" fill="white"/>
<path d="M413.581 290.595H400.553C399.917 290.595 399.402 291.11 399.402 291.746C399.402 292.382 399.917 292.897 400.553 292.897H413.581C414.216 292.897 414.732 292.382 414.732 291.746C414.732 291.11 414.216 290.595 413.581 290.595Z" fill="white"/>
<path d="M402.521 285.207H400.425C399.789 285.207 399.274 285.722 399.274 286.358C399.274 286.994 399.789 287.509 400.425 287.509H402.521C403.156 287.509 403.672 286.994 403.672 286.358C403.672 285.722 403.156 285.207 402.521 285.207Z" fill="white"/>
<path d="M426.495 285.207H424.399C423.763 285.207 423.248 285.722 423.248 286.358C423.248 286.994 423.763 287.509 424.399 287.509H426.495C427.131 287.509 427.646 286.994 427.646 286.358C427.646 285.722 427.131 285.207 426.495 285.207Z" fill="white"/>
<path d="M433.288 285.207H431.192C430.556 285.207 430.041 285.722 430.041 286.358C430.041 286.994 430.556 287.509 431.192 287.509H433.288C433.923 287.509 434.438 286.994 434.438 286.358C434.438 285.722 433.923 285.207 433.288 285.207Z" fill="white"/>
<path d="M419.974 285.399H406.946C406.31 285.399 405.795 285.914 405.795 286.55C405.795 287.186 406.31 287.701 406.946 287.701H419.974C420.61 287.701 421.125 287.186 421.125 286.55C421.125 285.914 420.61 285.399 419.974 285.399Z" fill="white"/>
<path d="M372.197 361.696L362.356 346.135L393.244 321.503L405.993 307.373C407.65 305.537 409.759 304.168 412.11 303.403C414.46 302.638 416.971 302.504 419.39 303.014C421.809 303.523 424.051 304.659 425.894 306.308C427.737 307.956 429.115 310.06 429.89 312.408C431.039 315.887 430.792 319.678 429.201 322.978C427.61 326.279 424.799 328.833 421.361 330.099L401.201 337.529L372.197 361.696Z" fill="#FFB6B6"/>
<path d="M141.303 248.868V324.499H194.267V248.868C194.268 248.324 194.094 247.795 193.772 247.357C193.45 246.919 192.995 246.595 192.476 246.435C192.231 246.354 191.974 246.314 191.717 246.317H143.861C143.526 246.316 143.193 246.382 142.883 246.51C142.573 246.638 142.291 246.825 142.054 247.062C141.816 247.299 141.627 247.581 141.499 247.891C141.37 248.201 141.304 248.533 141.303 248.868ZM161.973 274.855C161.987 273.364 162.588 271.939 163.647 270.89C164.706 269.84 166.136 269.252 167.627 269.252C169.117 269.252 170.547 269.84 171.606 270.89C172.665 271.939 173.267 273.364 173.281 274.855V283.631C173.273 285.126 172.674 286.557 171.614 287.612C170.555 288.666 169.121 289.258 167.627 289.258C166.132 289.258 164.698 288.666 163.639 287.612C162.579 286.557 161.98 285.126 161.973 283.631V274.855Z" fill="#2F2E41"/>
<path d="M141.141 322.081V329.374C141.142 329.751 141.292 330.114 141.559 330.381C141.825 330.649 142.186 330.801 142.564 330.804H193.007C193.385 330.802 193.746 330.651 194.013 330.383C194.28 330.115 194.429 329.752 194.429 329.374V322.081H141.141Z" fill="#3F3D56"/>
<path d="M57.9838 134.921V273.012C57.9852 274.772 58.6846 276.459 59.9284 277.703C61.1723 278.948 62.859 279.647 64.6181 279.649H269.176C270.935 279.647 272.621 278.948 273.865 277.703C275.109 276.459 275.809 274.772 275.81 273.012V134.921C275.806 133.163 275.105 131.478 273.862 130.235C272.618 128.993 270.933 128.294 269.176 128.291H64.6181C62.8605 128.294 61.1754 128.993 59.932 130.235C58.6885 131.478 57.988 133.163 57.9838 134.921Z" fill="#3F3D56"/>
<path d="M62.7826 136.639V271.308C62.7842 272.249 63.1583 273.15 63.8229 273.815C64.4875 274.48 65.3884 274.854 66.3283 274.855H267.473C268.413 274.854 269.314 274.48 269.978 273.815C270.643 273.15 271.017 272.249 271.019 271.308V136.639C271.018 135.698 270.645 134.795 269.98 134.128C269.316 133.462 268.414 133.087 267.473 133.085H66.3283C65.3872 133.087 64.4855 133.462 63.8208 134.128C63.156 134.795 62.7827 135.698 62.7826 136.639Z" fill="white"/>
<path d="M100.112 330.31C100.316 330.567 100.577 330.774 100.873 330.916C101.169 331.058 101.493 331.13 101.822 331.129H221.49C221.817 331.128 222.14 331.055 222.435 330.914C222.731 330.773 222.991 330.568 223.197 330.314C223.403 330.059 223.55 329.762 223.627 329.444C223.704 329.126 223.709 328.794 223.642 328.474L221.785 319.647C221.708 319.287 221.542 318.952 221.302 318.673C221.063 318.393 220.757 318.178 220.414 318.047C220.165 317.949 219.9 317.899 219.632 317.899H103.672C103.405 317.899 103.14 317.949 102.891 318.047C102.547 318.178 102.241 318.393 102.002 318.673C101.762 318.952 101.597 319.287 101.52 319.647L99.6619 328.474C99.5958 328.794 99.6019 329.125 99.6797 329.443C99.7575 329.76 99.905 330.057 100.112 330.31Z" fill="#2F2E41"/>
<path d="M260.945 151.636H72.7349C72.5393 151.632 72.3531 151.551 72.2163 151.411C72.0795 151.271 72.0029 151.083 72.0029 150.887C72.0029 150.691 72.0795 150.503 72.2163 150.364C72.3531 150.224 72.5393 150.143 72.7349 150.138H260.945C261.141 150.143 261.327 150.224 261.464 150.364C261.601 150.503 261.677 150.691 261.677 150.887C261.677 151.083 261.601 151.271 261.464 151.411C261.327 151.551 261.141 151.632 260.945 151.636Z" fill="#3F3D56"/>
<path d="M85.5466 146.315C87.9691 146.315 89.9329 144.307 89.9329 141.83C89.9329 139.352 87.9691 137.344 85.5466 137.344C83.1241 137.344 81.1603 139.352 81.1603 141.83C81.1603 144.307 83.1241 146.315 85.5466 146.315Z" fill="#3F3D56"/>
<path d="M100.699 146.315C103.122 146.315 105.086 144.307 105.086 141.83C105.086 139.352 103.122 137.344 100.699 137.344C98.2768 137.344 96.313 139.352 96.313 141.83C96.313 144.307 98.2768 146.315 100.699 146.315Z" fill="#3F3D56"/>
<path d="M115.852 146.315C118.275 146.315 120.238 144.307 120.238 141.83C120.238 139.352 118.275 137.344 115.852 137.344C113.43 137.344 111.466 139.352 111.466 141.83C111.466 144.307 113.43 146.315 115.852 146.315Z" fill="#3F3D56"/>
<path d="M251.821 138.453H241.058C240.846 138.458 240.643 138.546 240.494 138.698C240.346 138.851 240.263 139.055 240.263 139.268C240.263 139.481 240.346 139.685 240.494 139.838C240.643 139.99 240.846 140.078 241.058 140.083H251.821C252.035 140.08 252.239 139.993 252.389 139.84C252.54 139.688 252.624 139.482 252.624 139.268C252.624 139.054 252.54 138.848 252.389 138.696C252.239 138.543 252.035 138.456 251.821 138.453Z" fill="#3F3D56"/>
<path d="M251.821 141.513H241.058C240.845 141.518 240.643 141.606 240.494 141.758C240.345 141.911 240.262 142.115 240.262 142.328C240.262 142.541 240.345 142.746 240.494 142.898C240.643 143.051 240.845 143.138 241.058 143.143H251.821C252.035 143.141 252.24 143.054 252.39 142.901C252.541 142.748 252.625 142.543 252.625 142.328C252.625 142.114 252.541 141.908 252.39 141.756C252.24 141.603 252.035 141.516 251.821 141.513Z" fill="#3F3D56"/>
<path d="M251.821 144.574H241.058C240.846 144.579 240.643 144.667 240.494 144.819C240.346 144.971 240.263 145.176 240.263 145.389C240.263 145.601 240.346 145.806 240.494 145.958C240.643 146.11 240.846 146.198 241.058 146.203H251.821C252.035 146.2 252.239 146.113 252.389 145.961C252.54 145.808 252.624 145.603 252.624 145.389C252.624 145.174 252.54 144.969 252.389 144.816C252.239 144.664 252.035 144.577 251.821 144.574Z" fill="#3F3D56"/>
<path d="M511.28 325.281C511.605 326.227 512.221 327.046 513.04 327.62C513.859 328.194 514.839 328.493 515.838 328.475L535.366 327.972C536.373 327.953 537.347 327.608 538.142 326.989C538.936 326.37 539.509 325.51 539.775 324.538L542.539 294.977C543.519 295.421 544.587 295.64 545.663 295.619C546.598 295.595 547.519 295.388 548.374 295.008C549.228 294.629 550 294.084 550.645 293.406C551.289 292.728 551.794 291.93 552.13 291.057C552.466 290.184 552.627 289.253 552.603 288.318C552.58 287.382 552.373 286.461 551.993 285.606C551.614 284.751 551.07 283.979 550.392 283.334C549.714 282.689 548.916 282.184 548.043 281.848C547.171 281.512 546.24 281.351 545.305 281.374C544.875 281.373 544.446 281.417 544.025 281.507C543.568 281.012 543.012 280.618 542.393 280.351C541.774 280.084 541.106 279.95 540.433 279.957L510.394 280.733C510.144 280.742 509.896 280.773 509.653 280.825C508.994 280.947 508.369 281.21 507.82 281.595C507.271 281.979 506.811 282.477 506.471 283.055C506.131 283.632 505.918 284.276 505.847 284.942C505.776 285.609 505.849 286.283 506.06 286.919L511.28 325.281ZM543.105 292.969L545.072 285.925C545.296 285.111 545.301 284.253 545.087 283.437C545.182 283.436 545.266 283.391 545.362 283.391C546.71 283.363 548.015 283.871 548.989 284.804C549.963 285.736 550.528 287.018 550.56 288.366C550.591 289.715 550.087 291.021 549.157 291.999C548.228 292.976 546.948 293.545 545.6 293.58C544.729 293.607 543.866 293.396 543.105 292.969Z" fill="#2F2E41"/>
<path d="M509.652 280.824C510.292 284.485 517.488 287.059 526.139 286.611C534.095 286.245 540.6 283.45 541.792 280.138C541.351 280.007 540.892 279.946 540.432 279.956L510.393 280.732C510.144 280.742 509.896 280.772 509.652 280.824Z" fill="#3F3D56"/>
<path d="M527.725 309.037C527.765 309.027 527.802 309.01 527.836 308.988L532.077 306.211C532.128 306.178 532.17 306.132 532.2 306.078C532.229 306.024 532.244 305.964 532.244 305.903C532.244 305.842 532.229 305.781 532.2 305.728C532.171 305.674 532.129 305.628 532.077 305.595L527.669 302.706C527.629 302.679 527.584 302.661 527.536 302.652C527.488 302.643 527.439 302.643 527.392 302.653C527.344 302.662 527.299 302.681 527.259 302.709C527.219 302.736 527.185 302.771 527.158 302.812C527.131 302.852 527.113 302.898 527.104 302.945C527.095 302.993 527.096 303.042 527.106 303.089C527.116 303.137 527.135 303.182 527.162 303.222C527.19 303.262 527.225 303.296 527.265 303.323L531.202 305.902L527.433 308.371C527.36 308.419 527.306 308.491 527.281 308.575C527.256 308.658 527.262 308.748 527.297 308.828C527.332 308.908 527.394 308.973 527.473 309.011C527.551 309.049 527.64 309.058 527.725 309.037H527.725Z" fill="#00BFA6"/>
<path d="M521.027 309.346C521.098 309.328 521.162 309.289 521.211 309.234C521.26 309.18 521.291 309.112 521.301 309.039C521.311 308.966 521.299 308.892 521.267 308.826C521.235 308.76 521.183 308.705 521.12 308.669L517.211 306.427L520.989 303.619C521.028 303.59 521.06 303.554 521.085 303.513C521.11 303.471 521.126 303.425 521.134 303.377C521.141 303.329 521.138 303.281 521.126 303.234C521.115 303.187 521.094 303.142 521.065 303.104C521.036 303.065 521 303.032 520.958 303.007C520.917 302.982 520.871 302.966 520.823 302.959C520.775 302.952 520.726 302.954 520.679 302.966C520.632 302.978 520.588 302.999 520.549 303.028L516.319 306.171C516.27 306.208 516.231 306.256 516.205 306.311C516.179 306.367 516.167 306.428 516.171 306.489C516.175 306.55 516.193 306.609 516.226 306.661C516.258 306.713 516.302 306.756 516.356 306.787L520.753 309.308C520.836 309.356 520.934 309.37 521.027 309.346Z" fill="#00BFA6"/>
<path d="M527.303 311.47C527.339 311.462 527.373 311.447 527.404 311.428C527.446 311.403 527.482 311.37 527.51 311.331C527.539 311.291 527.559 311.247 527.571 311.2C527.582 311.153 527.584 311.104 527.577 311.056C527.57 311.008 527.553 310.962 527.528 310.921L521.516 301.033C521.465 300.95 521.383 300.89 521.288 300.867C521.193 300.844 521.093 300.86 521.009 300.911C520.926 300.962 520.866 301.044 520.843 301.138C520.82 301.233 520.835 301.334 520.886 301.417L526.898 311.305C526.939 311.372 527 311.425 527.073 311.454C527.146 311.484 527.227 311.49 527.303 311.47Z" fill="#00BFA6"/>
<path d="M189.328 192.342H156.753C155.424 192.342 154.347 193.419 154.347 194.749V197.933C154.347 199.262 155.424 200.34 156.753 200.34H189.328C190.657 200.34 191.734 199.262 191.734 197.933V194.749C191.734 193.419 190.657 192.342 189.328 192.342Z" fill="#00BFA6"/>
<path d="M208.316 208.338H137.765C136.436 208.338 135.359 209.415 135.359 210.745V213.928C135.359 215.258 136.436 216.336 137.765 216.336H208.316C209.644 216.336 210.722 215.258 210.722 213.928V210.745C210.722 209.415 209.644 208.338 208.316 208.338Z" fill="#E6E6E6"/>
<path d="M208.316 224.333H137.765C136.436 224.333 135.359 225.411 135.359 226.741V229.924C135.359 231.254 136.436 232.331 137.765 232.331H208.316C209.644 232.331 210.722 231.254 210.722 229.924V226.741C210.722 225.411 209.644 224.333 208.316 224.333Z" fill="#E6E6E6"/>
<path d="M214.296 277.897L214.456 278.402L214.464 278.419L219.274 293.048L224.808 309.906L235.218 341.587L235.319 346.509V346.525L236.092 386.114L233.948 391.481L236.362 400.28C236.362 400.28 235.252 386.979 229.298 394.618C225.926 398.959 221.982 403.4 218.745 407.564C223.462 409.474 228.255 411.201 233.124 412.746C234.175 413.083 235.235 413.403 236.294 413.722C236.521 413.79 236.748 413.857 236.976 413.924C253.115 418.699 269.8 421.382 286.623 421.908C287.497 421.933 288.355 421.95 289.188 421.966C289.482 421.975 289.768 421.983 290.054 421.983C290.996 421.992 291.929 422 292.871 422C294.771 422 296.663 421.972 298.547 421.916C312.489 421.523 326.349 419.648 339.894 416.322C339.802 410.727 339.55 404.191 339.188 397.209C339.02 393.785 335.244 390.075 335.017 386.491C334.857 383.8 338.246 381.267 338.07 378.533C336.926 361.7 335.497 368.162 334.437 356.242C334.328 355.072 334.227 353.954 334.134 352.885C333.453 345.23 332.982 340.443 332.982 340.443L337.506 311.917L344.612 267.13L344.065 266.23L343.452 265.927L305.972 247.369L303.937 242.153C303.344 240.651 302.315 239.36 300.983 238.447C299.651 237.534 298.076 237.041 296.461 237.03L271.772 236.929C270.491 236.924 269.227 237.223 268.085 237.804C266.942 238.385 265.955 239.23 265.205 240.269L258.52 249.531L214.296 277.897Z" fill="#3F3D56"/>
<path d="M240.911 334.538L235.319 346.509L231.501 354.685L224.934 389.084L221.646 392.575L218.829 380.216L189.345 386.765C188.378 381.389 189.086 386.947 188.489 381.05C188.657 380.882 188.833 380.713 189.01 380.545C189.481 380.108 189.876 379.695 189.868 379.3C189.531 358.959 190.54 324.342 198.966 303.37C200.286 299.946 202.026 296.699 204.146 293.704C204.315 293.477 204.474 293.25 204.634 293.023C208.519 287.58 210.975 282.221 214.456 278.411V278.402C214.478 278.385 214.497 278.365 214.515 278.343C214.527 278.337 214.539 278.328 214.548 278.318L238.464 265.632L239.49 294.47L240.221 315.198L240.911 334.538Z" fill="#3F3D56"/>
<path d="M327.146 337.938L334.131 352.889L336.569 358.096L343.135 392.491L346.412 395.974L349.235 383.618L350.562 383.346L374.489 378.388L381.462 400.545C383.034 397.925 383.653 394.843 383.215 391.819C382.777 388.795 381.309 386.015 379.058 383.949C378.582 383.518 378.185 383.098 378.197 382.701C378.594 358.777 377.131 315.091 363.92 297.111C359.724 291.405 357.207 285.722 353.544 281.751C353.533 281.74 353.533 281.728 353.522 281.728L344.609 267.129L344.064 266.233L343.452 265.926L327.146 337.938Z" fill="#3F3D56"/>
<path d="M284.83 229.9C302.97 229.9 317.676 215.189 317.676 197.042C317.676 178.894 302.97 164.183 284.83 164.183C266.69 164.183 251.984 178.894 251.984 197.042C251.984 215.189 266.69 229.9 284.83 229.9Z" fill="#FFB6B6"/>
<path d="M329.225 174.09C328.971 173.818 328.664 173.6 328.323 173.449C327.982 173.298 327.615 173.218 327.242 173.213L327.736 171.841C327.897 171.409 327.941 170.942 327.862 170.487C327.784 170.033 327.586 169.608 327.289 169.255C326.992 168.902 326.606 168.635 326.172 168.48C325.738 168.326 325.27 168.289 324.817 168.375L323.018 168.722L323.188 167.52C323.253 167.072 323.2 166.615 323.035 166.194C322.87 165.773 322.599 165.402 322.247 165.117C321.895 164.833 321.475 164.646 321.029 164.573C320.583 164.5 320.125 164.545 319.701 164.703C319.316 164.854 318.901 164.918 318.488 164.889C318.075 164.859 317.673 164.738 317.313 164.533C316.951 164.334 316.637 164.059 316.393 163.727C316.148 163.395 315.979 163.013 315.898 162.608L315.271 159.585L315.205 159.423C312.153 154.334 306.285 150.632 299.105 149.276C292.714 148.059 286.161 148.678 279.844 149.261C277.338 149.497 274.507 149.762 272.148 151.208C270.143 152.446 268.448 154.924 268.794 157.424C262.565 155.514 255.887 159.327 252.577 164.135C248.655 169.857 248.014 177.025 247.911 182.629C247.631 195.888 250.365 206.736 256.019 214.877C256.432 215.467 256.535 216.699 257.354 217.112L257.184 216.839C258.098 217.296 259.027 218.033 258.68 218.823C257.685 221.094 264.297 226.116 268.956 227.775C277.456 230.806 288.756 230.548 296.702 229.456L296.982 227.576C299.85 227.185 301.87 226.44 302.437 225.275C303.44 224.42 304.295 223.653 305.039 222.945L305.047 222.937C305.062 222.923 305.091 222.901 305.106 222.886C308.696 219.442 309.529 217.48 309.905 214.494C310.266 211.566 309.625 208.594 308.968 205.918C322.783 208.056 303.528 191.198 316.399 187.939C316.546 187.893 316.697 187.857 316.848 187.828C317.224 187.74 317.6 187.651 317.962 187.548C319.703 187.075 321.37 186.363 322.915 185.432C326.512 183.242 327.699 180.336 329.557 177.062C329.825 176.596 329.937 176.056 329.878 175.522C329.818 174.987 329.589 174.486 329.225 174.09Z" fill="#2F2E41"/>
<path d="M401.001 340.277C400.993 341.568 400.979 343.375 400.92 345.609C400.912 345.919 400.905 346.236 400.898 346.56C400.802 350.668 400.706 354.111 400.551 357.939C400.544 358.204 400.536 358.462 400.522 358.728C400.315 364.067 399.991 370.283 399.431 380.128C398.391 398.313 396.578 382.628 394.757 389.007C394.669 389.324 394.573 389.7 394.484 390.142C394.209 391.748 393.744 393.315 393.099 394.81C392.133 395.385 391.138 395.939 390.157 396.492C387.364 398.048 384.526 399.545 381.666 400.968C380.059 401.764 378.444 402.546 376.823 403.298C376.565 403.416 376.314 403.534 376.063 403.645C367.759 407.487 359.2 410.755 350.448 413.423C348.737 413.939 347.035 414.441 345.31 414.905C343.511 415.407 341.712 415.879 339.892 416.321C326.347 419.648 312.487 421.524 298.545 421.918C296.665 421.977 294.771 421.999 292.869 421.999C291.926 421.999 290.997 421.992 290.053 421.985C289.766 421.985 289.478 421.977 289.191 421.97C288.358 421.948 287.495 421.933 286.626 421.911C269.803 421.386 253.118 418.702 236.979 413.924L236.293 413.725C235.232 413.401 234.178 413.084 233.124 412.745C228.258 411.203 223.465 409.478 218.742 407.568C215.137 406.115 211.574 404.557 208.053 402.893C208.021 402.884 207.991 402.869 207.965 402.848C207.228 402.509 206.483 402.155 205.746 401.794C205.65 401.742 205.547 401.69 205.444 401.639C202.694 400.297 199.974 398.891 197.284 397.421C195.021 392.222 191.836 391.226 189.861 386.654C189.286 385.296 188.87 383.876 188.622 382.421C188.622 382.407 188.615 382.392 188.615 382.37C188.821 385.113 187.738 377.503 188.607 382.34C188.6 382.252 188.593 382.156 188.585 382.045C188.563 381.78 188.534 381.455 188.49 381.05C185.961 356.353 186.123 328.11 185.025 304.836C184.951 303.332 184.875 301.892 184.796 300.515C184.774 300.058 184.745 299.608 184.715 299.166C184.767 299.033 184.826 298.893 184.892 298.76C184.906 298.722 184.924 298.685 184.944 298.649C184.966 298.604 184.99 298.559 185.018 298.517C185.032 298.495 185.054 298.465 185.069 298.443C185.08 298.418 185.092 298.393 185.106 298.369C185.172 298.266 185.246 298.155 185.327 298.052C185.364 298.008 185.394 297.971 185.43 297.934C185.456 297.896 185.485 297.862 185.519 297.831C185.541 297.795 185.569 297.763 185.6 297.735C185.629 297.706 185.659 297.669 185.696 297.632C185.711 297.609 185.732 297.589 185.755 297.573C185.813 297.506 185.877 297.444 185.946 297.388C186.209 297.146 186.49 296.924 186.787 296.725C186.89 296.658 187 296.592 187.104 296.518C187.847 296.074 188.629 295.698 189.44 295.397C189.721 295.294 190.001 295.198 190.303 295.095C190.413 295.066 190.517 295.029 190.627 294.992C190.789 294.94 190.952 294.889 191.121 294.852C191.961 294.601 192.868 294.387 193.849 294.188C193.966 294.166 194.092 294.144 194.217 294.114C194.394 294.077 194.578 294.048 194.763 294.018C195.013 293.974 195.271 293.93 195.529 293.886C197.719 293.539 200.203 293.281 202.945 293.111C203.203 293.097 203.461 293.082 203.719 293.067C204.021 293.052 204.323 293.038 204.633 293.023C204.891 293.008 205.156 293.001 205.422 292.993C205.68 292.979 205.945 292.971 206.218 292.964C206.962 292.942 207.729 292.92 208.51 292.905C210.737 292.861 213.081 292.875 215.543 292.927C216.685 292.956 217.85 292.986 219.044 293.038C219.125 293.038 219.199 293.045 219.273 293.045C220.312 293.082 221.359 293.126 222.435 293.185C223.187 293.222 223.946 293.259 224.705 293.303C225.42 293.347 226.143 293.392 226.873 293.443C227.44 293.473 228.008 293.517 228.583 293.554C229.069 293.591 229.556 293.628 230.042 293.657L230.706 293.701C231.067 293.731 231.428 293.753 231.797 293.79C232.608 293.856 233.418 293.923 234.244 293.989C235.062 294.063 235.895 294.136 236.728 294.21C237.561 294.284 238.402 294.365 239.242 294.446C239.33 294.453 239.411 294.461 239.493 294.468C240.259 294.549 241.026 294.623 241.8 294.704C241.977 294.719 242.161 294.734 242.338 294.756C243.076 294.83 243.828 294.917 244.573 294.996C244.801 295.021 245.029 295.045 245.258 295.07C245.841 295.133 246.416 295.188 247.004 295.257C247.778 295.346 248.567 295.427 249.333 295.53C249.93 295.596 250.527 295.663 251.125 295.737C252.061 295.847 253.012 295.965 253.963 296.091C254.324 296.135 254.685 296.179 255.046 296.231C257.759 296.57 260.501 296.946 263.287 297.337C267.511 297.934 271.801 298.583 276.121 299.284C280.448 299.984 284.8 300.724 289.176 301.503C290.282 301.702 291.387 301.901 292.501 302.108C293.002 302.204 293.503 302.3 294.004 302.396C294.859 302.55 295.714 302.713 296.57 302.875C297.425 303.037 298.28 303.199 299.135 303.369C300.152 303.568 301.177 303.767 302.194 303.966C308.895 305.294 315.558 306.71 322.06 308.192C323.129 308.435 324.198 308.686 325.259 308.929C327.382 309.423 329.486 309.925 331.569 310.434C332.144 310.566 332.712 310.706 333.279 310.846C334.695 311.2 336.11 311.554 337.503 311.916L337.746 311.982C338.771 312.233 339.774 312.491 340.776 312.756C343.142 313.376 345.469 314.003 347.757 314.637C349.275 315.057 350.777 315.482 352.261 315.913C354.48 316.554 356.654 317.203 358.77 317.859C359.293 318.022 359.817 318.184 360.333 318.339C361.881 318.818 363.406 319.305 364.888 319.792C366.067 320.175 367.217 320.566 368.353 320.957C369.488 321.348 370.601 321.738 371.692 322.129C372.392 322.38 373.085 322.645 373.778 322.896C374.773 323.265 375.754 323.634 376.712 324.002C377.007 324.113 377.294 324.231 377.582 324.341C377.766 324.423 377.943 324.489 378.12 324.563C378.466 324.703 378.82 324.836 379.159 324.976C379.506 325.108 379.845 325.248 380.184 325.396C380.516 325.529 380.855 325.669 381.179 325.809C381.511 325.942 381.835 326.082 382.159 326.229C382.432 326.34 382.697 326.458 382.955 326.576C383.479 326.804 384.002 327.033 384.511 327.269C384.762 327.387 385.012 327.498 385.263 327.616L385.838 327.881C385.919 327.925 386 327.962 386.081 327.999C386.265 328.088 386.457 328.183 386.641 328.272C387.069 328.471 387.489 328.685 387.902 328.884C388.455 329.164 388.993 329.444 389.509 329.717C390.032 329.998 390.541 330.278 391.027 330.551C391.108 330.595 391.182 330.639 391.263 330.683C391.374 330.742 391.484 330.809 391.595 330.868C391.971 331.082 392.332 331.303 392.693 331.517C393.401 331.952 394.072 332.379 394.698 332.807C394.838 332.903 394.971 332.999 395.111 333.087C395.575 333.419 396.018 333.744 396.43 334.075C396.43 334.083 396.431 334.083 396.438 334.083C396.578 334.186 396.711 334.297 396.843 334.4C396.954 334.503 397.072 334.592 397.182 334.695C397.566 335.027 397.919 335.344 398.244 335.668C398.353 335.768 398.456 335.874 398.553 335.985C398.596 336.021 398.636 336.06 398.671 336.103C398.819 336.251 398.952 336.398 399.077 336.546C399.096 336.566 399.114 336.588 399.128 336.612C399.305 336.819 399.468 337.025 399.622 337.232C399.696 337.335 399.777 337.438 399.843 337.541C399.932 337.667 400.02 337.8 400.094 337.925C400.16 338.028 400.219 338.139 400.278 338.242C400.435 338.508 400.568 338.787 400.676 339.075C400.759 339.271 400.826 339.473 400.875 339.68C400.931 339.876 400.973 340.076 401.001 340.277Z" fill="#2F2E41"/>
<path opacity="0.2" d="M401.001 340.277C400.994 341.568 400.979 343.375 400.92 345.609C400.912 345.919 400.898 346.236 400.89 346.56C400.817 349.694 400.706 353.566 400.551 357.939C400.544 358.204 400.536 358.462 400.522 358.728C400.315 364.067 399.991 370.283 399.431 380.128C398.391 398.313 396.578 382.628 394.757 389.007C389.7 385.895 384.157 382.635 378.23 379.287C377.162 378.683 376.083 378.076 374.994 377.466C363.141 370.851 349.902 363.919 336.081 357.054C335.535 356.781 334.982 356.508 334.437 356.243C302.776 340.587 268.219 325.359 240.222 315.197C234.819 313.236 229.659 311.466 224.809 309.91C214.592 306.643 205.761 304.357 198.964 303.369C191.888 302.336 187 302.705 185.025 304.836C184.951 303.332 184.875 301.892 184.796 300.515C184.767 300.058 184.737 299.608 184.708 299.166C184.753 299.044 184.813 298.928 184.87 298.811C184.878 298.794 184.884 298.777 184.892 298.76C184.906 298.722 184.924 298.685 184.944 298.649C184.966 298.604 184.99 298.559 185.018 298.517C185.042 298.464 185.071 298.415 185.106 298.369C185.172 298.266 185.246 298.155 185.327 298.052C185.387 297.975 185.451 297.901 185.519 297.831C185.541 297.795 185.569 297.763 185.6 297.735C185.629 297.705 185.659 297.669 185.696 297.632C185.711 297.608 185.732 297.588 185.755 297.573C185.813 297.506 185.877 297.444 185.946 297.388C186.209 297.146 186.49 296.924 186.787 296.725C186.89 296.658 187 296.592 187.104 296.518C187.847 296.074 188.629 295.698 189.44 295.397C189.721 295.294 190.001 295.198 190.303 295.095C190.413 295.065 190.517 295.029 190.627 294.992C190.789 294.94 190.952 294.888 191.121 294.852C191.961 294.601 192.868 294.387 193.849 294.188C194.143 294.129 194.453 294.07 194.763 294.018C195.013 293.974 195.271 293.93 195.529 293.886C197.719 293.539 200.203 293.281 202.945 293.111C203.203 293.096 203.461 293.082 203.719 293.067C204.021 293.052 204.323 293.037 204.633 293.023C204.891 293.008 205.156 293.001 205.422 292.993C205.68 292.979 205.945 292.971 206.218 292.964C206.962 292.942 207.729 292.92 208.51 292.905C210.737 292.868 213.081 292.883 215.543 292.934C216.685 292.956 217.85 292.993 219.044 293.045C219.118 293.045 219.199 293.052 219.273 293.052C220.312 293.082 221.366 293.133 222.435 293.185C223.187 293.222 223.946 293.259 224.705 293.303C225.42 293.347 226.143 293.391 226.873 293.443C227.44 293.473 228.008 293.517 228.583 293.554C229.069 293.591 229.556 293.627 230.042 293.657C230.625 293.701 231.207 293.745 231.797 293.79C232.608 293.856 233.418 293.922 234.244 293.989C235.062 294.063 235.895 294.136 236.728 294.21C237.561 294.284 238.402 294.365 239.242 294.446C239.33 294.453 239.411 294.461 239.493 294.468C240.259 294.549 241.026 294.623 241.8 294.704C246.09 295.139 250.505 295.648 255.046 296.231C257.759 296.577 260.506 296.948 263.288 297.344C267.511 297.941 271.802 298.59 276.121 299.284C280.448 299.984 284.8 300.724 289.176 301.503C290.282 301.702 291.387 301.901 292.501 302.108C293.857 302.359 295.213 302.614 296.57 302.875C297.425 303.037 298.28 303.199 299.135 303.369C300.152 303.568 301.177 303.767 302.194 303.966C308.895 305.294 315.558 306.709 322.06 308.192C323.129 308.435 324.198 308.686 325.259 308.929C327.382 309.423 329.486 309.925 331.569 310.433C332.144 310.574 332.712 310.714 333.279 310.854C334.702 311.208 336.11 311.562 337.503 311.916V311.923C337.584 311.938 337.665 311.96 337.746 311.982C338.764 312.24 339.774 312.498 340.776 312.764C343.142 313.383 345.469 314.008 347.757 314.637C349.275 315.064 350.779 315.485 352.261 315.913C354.48 316.562 356.654 317.21 358.77 317.859C359.293 318.022 359.817 318.184 360.333 318.339C361.881 318.825 363.399 319.31 364.888 319.791C366.068 320.175 367.218 320.566 368.353 320.957C369.488 321.347 370.601 321.738 371.692 322.129C372.4 322.38 373.093 322.638 373.778 322.889C374.781 323.257 375.754 323.626 376.712 324.002C377.007 324.113 377.294 324.231 377.582 324.341C378.12 324.548 378.643 324.762 379.159 324.976C379.506 325.108 379.845 325.248 380.184 325.396C380.516 325.529 380.855 325.669 381.179 325.809C381.511 325.942 381.835 326.082 382.159 326.229C382.432 326.34 382.698 326.458 382.956 326.576C383.479 326.804 384.002 327.033 384.511 327.269C384.762 327.387 385.012 327.498 385.263 327.616L385.838 327.881C385.919 327.925 386 327.962 386.081 327.999C386.708 328.294 387.312 328.589 387.902 328.884C388.455 329.164 388.993 329.444 389.509 329.717C390.121 330.042 390.703 330.359 391.263 330.683C391.374 330.742 391.484 330.809 391.595 330.868C391.971 331.082 392.332 331.303 392.693 331.517C393.401 331.952 394.072 332.379 394.698 332.807C395.317 333.235 395.892 333.655 396.431 334.075C396.431 334.083 396.431 334.083 396.438 334.083C396.696 334.289 396.947 334.496 397.182 334.695C397.566 335.027 397.92 335.344 398.244 335.668C398.353 335.768 398.456 335.874 398.554 335.985C398.596 336.021 398.636 336.06 398.671 336.103C398.826 336.273 398.981 336.443 399.129 336.612C399.305 336.819 399.468 337.025 399.622 337.232C399.696 337.335 399.777 337.438 399.844 337.541C399.932 337.667 400.02 337.799 400.094 337.925C400.161 338.028 400.22 338.139 400.279 338.242C400.435 338.508 400.568 338.787 400.677 339.075C400.757 339.272 400.824 339.474 400.876 339.68C400.931 339.876 400.973 340.075 401.001 340.277Z" fill="black"/>
</g>
<defs>
<clipPath id="clip0_2_24">
<rect width="580" height="422" fill="white"/>
</clipPath>
</defs>
</svg>
